# AST/ASF file generated using VICON BodyLanguage
# -----------------------------------------------
:version 1.10
:name VICON
:units
  mass 1.0
  length 0.45
  angle deg
:documentation
   .ast/.asf automatically generated from VICON data using
   VICON BodyBuilder and BodyLanguage model FoxedUp or BRILLIANT.MOD
:root
   order TX TY TZ RX RY RZ
   axis XYZ
   position 0 0 0  
   orientation 0 0 0 
:bonedata
  begin
     id 1 
     name lhipjoint
     direction 0.645893 -0.654526 0.392961 
     length 2.38111 
     axis 0 0 0  XYZ
  end
  begin
     id 2 
     name lfemur
     direction 0.34202 -0.939693 0  
     length 6.6822  
     axis 0 0 20  XYZ
    dof rx ry rz
    limits (-160.0 20.0)
           (-70.0 70.0)
           (-60.0 70.0)
  end
  begin
     id 3 
     name ltibia
     direction 0.34202 -0.939693 0   
     length 6.93904   
     axis 0 0 20   XYZ
    dof rx
    limits (-10.0 170.0)
  end
  begin
     id 4 
     name lfoot
     direction 0.0694967 -0.190941 0.979138   
     length 2.13616   
     axis -90 7.62852e-016 20   XYZ
    dof rx rz
    limits (-45.0 90.0)
           (-70.0 20.0)
  end
  begin
     id 5 
     name ltoes
     direction 1.535e-011 -4.2202e-011 1   
     length 1.07536   
     axis -90 7.62852e-016 20   XYZ
    dof rx
    limits (-90.0 20.0)
  end
  begin
     id 6 
     name rhipjoint
     direction -0.700219 -0.612087 0.367481   
     length 2.54621  
     axis 0 0 0  XYZ 
  end
  begin
     id 7 
     name rfemur
     direction -0.34202 -0.939693 0   
     length 6.55353   
     axis 0 0 -20   XYZ
    dof rx ry rz
    limits (-160.0 20.0)
           (-70.0 70.0)
           (-70.0 60.0)
  end
  begin
     id 8 
     name rtibia
     direction -0.34202 -0.939693 0   
     length 6.8736   
     axis 0 0 -20   XYZ
    dof rx
    limits (-10.0 170.0)
 end
 begin
     id 9 
     name rfoot
     direction -0.0679995 -0.186827 0.980037   
     length 2.1218  
     axis -90 -7.62852e-016 -20   XYZ
    dof rx rz
    limits (-45.0 90.0)
           (-20.0 70.0)
  end
  begin
     id 10 
     name rtoes
     direction -1.53589e-011 -4.21772e-011 1   
     length 1.06864   
     axis -90 -7.62852e-016 -20   XYZ
    dof rx
    limits (-90.0 20.0)
  end
  begin
     id 11 
     name lowerback
     direction -0.0416607 0.996347 -0.0745409   
     length 2.12205   
     axis 0 0 0   XYZ
    dof rx ry rz
    limits (-20.0 45.0)
           (-30.0 30.0)
           (-30.0 30.0)
  end
  begin
     id 12 
     name upperback
     direction -0.000153993 0.999276 -0.0380568   
     length 2.12759   
     axis 0 0 0   XYZ
    dof rx ry rz
    limits (-20.0 45.0)
           (-30.0 30.0)
           (-30.0 30.0)
  end
  begin
     id 13 
     name thorax
     direction 0.0187671 0.999821 -0.00241421   
     length 2.13704   
     axis 0 0 0   XYZ
    dof rx ry rz
    limits (-20.0 45.0)
           (-30.0 30.0)
           (-30.0 30.0)
  end
  begin
     id 14 
     name lowerneck
     direction 0.0268157 0.964865 0.261374   
     length 1.65253   
     axis 0 0 0   XYZ
    dof rx ry rz
    limits (-20.0 45.0)
           (-30.0 30.0)
           (-30.0 30.0)
  end
  begin
     id 15 
     name upperneck
     direction 0.00263774 0.939908 -0.341418   
     length 1.72375   
     axis 0 0 0   XYZ
    dof rx ry rz
    limits (-20.0 45.0)
           (-30.0 30.0)
           (-30.0 30.0)
  end
  begin
     id 16
     name head
     direction -0.00526001 0.989001 -0.147818  
     length 1.74878  
     axis 0 0 0   XYZ
    dof rx ry rz
    limits (-20.0 45.0)
           (-30.0 30.0)
           (-30.0 30.0)
  end
  begin
     id 17 
     name lclavicle
     direction 0.881214 0.461162 -0.103884  
     length 3.25108  
     axis 0 0 0   XYZ
    dof ry rz
    limits (-20.0 10.0)
           (0.0 20.0)
  end
  begin
     id 18 
     name lhumerus
     direction 1 -4.4899e-011 3.38092e-027   
     length 4.87408   
     axis 180 -30 -90   XYZ
    dof rx ry rz
    limits (-60.0 90.0)
           (-90.0 90.0)
           (-90.0 90.0)
  end
  begin
     id 19
     name lradius
     direction 1 -4.48931e-011 9.96288e-027   
     length 2.76729   
     axis 180 -30 -90   XYZ
    dof rx
    limits (-10.0 170.0)
  end
  begin
     id 20
     name lwrist
     direction 1 -4.4896e-011 1.50617e-026   
     length 1.38364   
     axis -9.31234e-015 90 90   XYZ
    dof ry
    limits (-180.0 0.0)
 end
  begin
     id 21 
     name lhand
     direction 1 -4.49038e-011 3.01286e-026   
     length 0.98922   
     axis -1.92217e-014 90 90   XYZ
    dof rx rz
    limits (-90.0 90.0)
           (-45.0 45.0)
  end
  begin
     id 22 
     name lfingers
     direction 1 -4.49051e-011 6.02588e-026   
     length 0.797535   
     axis -3.84436e-014 90 90   XYZ
    dof rx
    limits (0.0 90.0)
  end
  begin
     id 23
     name lthumb
     direction 0.707107 -6.34901e-011 0.707107   
     length 1.14511   
     axis -90 45 2.19363e-014   XYZ
    dof rx rz
    limits (-45.0 45.0)
           (-45.0 45.0)
  end
  begin
     id 24 
     name rclavicle
     direction -0.893894 0.441652 -0.0767889   
     length 3.29361  
     axis 0 0 0   XYZ 
    dof ry rz
    limits (-10.0 20.0)
           (-20.0 0.0)
  end
  begin
     id 25 
     name rhumerus
     direction -1 -4.48945e-011 8.0491e-028  
     length 4.71404   
     axis 180 30 90   XYZ
    dof rx ry rz
    limits (-90.0 60.0)
           (-90.0 90.0)
           (-90.0 90.0)
  end
  begin
     id 26 
     name rradius
     direction -1 -4.48986e-011 9.27795e-027   
     length 2.83468   
     axis 180 30 90   XYZ
    dof rx
    limits (-10.0 170.0)
  end
  begin
     id 27 
     name rwrist
     direction -1 -4.49029e-011 1.5064e-026   
     length 1.41734   
     axis -9.31234e-015 -90 -90   XYZ
    dof ry
    limits (-180.0 0.0)
  end
  begin
     id 28
     name rhand
     direction -1 -4.48857e-011 3.01165e-026   
     length 0.868195   
     axis -1.92217e-014 -90 -90   XYZ
    dof rx rz
    limits (-90.0 90.0)
           (-45.0 45.0)
  end
  begin
     id 29
     name rfingers
     direction -1 -4.49048e-011 6.02585e-026   
     length 0.699961   
     axis -3.84436e-014 -90 -90   XYZ
    dof rx
    limits (0.0 90.0)
  end
  begin
     id 30
     name rthumb
     direction -0.707107 -6.34854e-011 0.707107   
     length 1.00501   
     axis -90 -45 -2.19363e-014   XYZ
    dof rx rz
    limits (-45.0 45.0)
           (-45.0 45.0)
  end
:hierarchy
  begin
    root lhipjoint rhipjoint lowerback
    lhipjoint lfemur
    lfemur ltibia
    ltibia lfoot
    lfoot ltoes
    rhipjoint rfemur
    rfemur rtibia
    rtibia rfoot
    rfoot rtoes
    lowerback upperback
    upperback thorax
    thorax lowerneck lclavicle rclavicle
    lowerneck upperneck
    upperneck head
    lclavicle lhumerus
    lhumerus lradius
    lradius lwrist
    lwrist lhand lthumb
    lhand lfingers
    rclavicle rhumerus
    rhumerus rradius
    rradius rwrist
    rwrist rhand rthumb
    rhand rfingers
  end

#!OML:ASF H:\ManfredObstacles\Project 1\Capture day 2\Session 1\male.ASF
:FULLY-SPECIFIED
:DEGREES
67
root 1.54568 15.6451 5.92653 -170.964 3.6128 -178.414
lowerback 0.579168 1.9366 -0.58495
upperback 1.42365 2.61096 -0.295834
thorax 1.1207 1.31117 0.0352327
lowerneck -35.7321 0.726892 2.16198
upperneck 35.4908 -0.621188 -1.60183
head 19.8088 -0.530635 -1.4552
rclavicle 1.19271e-014 -7.35503e-015
rhumerus -44.5813 20.4383 -98.3311
rradius 95.3009
rwrist 7.88682
rhand -16.5102 -0.941313
rfingers 7.12502
rthumb 9.70793 -30.6976
lclavicle 1.19271e-014 -7.35503e-015
lhumerus -61.0365 -20.6743 98.3577
lradius 103.611
lwrist -19.6344
lhand -13.0945 3.46896
lfingers 7.12502
lthumb 13.0021 33.0438
rfemur -10.8246 5.02185 28.1811
rtibia 36.0407
rfoot -9.74199 -17.0166
rtoes -26.5428
lfemur -30.8238 2.09508 -18.0676
ltibia 84.7948
lfoot 12.9269 17.4625
ltoes -2.01485
68
root 1.55454 15.7062 5.6307 -170.703 3.53144 -178.348
lowerback 0.460378 2.3638 -0.523599
upperback 1.25379 3.17678 -0.412769
thorax 1.02075 1.59373 -0.115568
lowerneck -35.7382 0.278444 1.83671
upperneck 35.6606 -1.32429 -1.18274
head 19.8979 -0.776245 -1.38286
rclavicle 8.00108e-015 -3.77691e-015
rhumerus -44.0392 20.9165 -98.5146
rradius 95.9533
rwrist 7.57737
rhand -16.3983 -1.02712
rfingers 7.12502
rthumb 9.81587 -30.7783
lclavicle 8.00108e-015 -3.77691e-015
lhumerus -61.8023 -21.1256 98.2542
lradius 104.184
lwrist -19.5531
lhand -13.048 3.0147
lfingers 7.12502
lthumb 13.0469 32.5867
rfemur -9.44643 4.94722 28.249
rtibia 34.9113
rfoot -8.43014 -16.3624
rtoes -27.335
lfemur -32.5787 1.8247 -17.9595
ltibia 83.6817
lfoot 12.3778 18.1711
ltoes -2.15271
69
root 1.56294 15.7772 5.32958 -170.432 3.4399 -178.333
lowerback 0.319173 2.77781 -0.515898
upperback 1.07365 3.72585 -0.553791
thorax 0.924564 1.8676 -0.259686
lowerneck -35.7341 -0.167589 1.51637
upperneck 35.8344 -2.03403 -0.762108
head 19.9964 -1.02371 -1.31277
rclavicle 4.36829e-014 -1.72943e-014
rhumerus -43.6418 21.3633 -98.6826
rradius 96.6155
rwrist 7.32529
rhand -16.2575 -1.07571
rfingers 7.12502
rthumb 9.9517 -30.8205
lclavicle 4.36829e-014 -1.72943e-014
lhumerus -62.5616 -21.6067 98.1553
lradius 104.748
lwrist -19.4701
lhand -13.0066 2.64273
lfingers 7.12502
lthumb 13.0868 32.2121
rfemur -8.08843 4.83124 28.2481
rtibia 33.7143
rfoot -6.89466 -15.5756
rtoes -28.33
lfemur -34.1589 1.50077 -17.9095
ltibia 82.1511
lfoot 11.982 18.7838
ltoes -2.31222
70
root 1.5711 15.8576 5.02247 -170.146 3.33575 -178.351
lowerback 0.141549 3.17528 -0.538888
upperback 0.896876 4.25448 -0.716048
thorax 0.854373 2.13137 -0.405287
lowerneck -35.7408 -0.592832 1.21533
upperneck 35.9938 -2.72453 -0.343061
head 20.0984 -1.26024 -1.24137
rclavicle -1.7344e-014 2.18663e-015
rhumerus -43.3415 21.7598 -98.8354
rradius 97.2712
rwrist 7.20932
rhand -16.0482 -1.10597
rfingers 7.12502
rthumb 10.1537 -30.841
lclavicle -1.7344e-014 2.18663e-015
lhumerus -63.2798 -22.1116 98.042
lradius 105.288
lwrist -19.411
lhand -12.9828 2.35638
lfingers 7.12502
lthumb 13.1097 31.9243
rfemur -6.75311 4.68046 28.197
rtibia 32.4365
rfoot -5.10359 -14.6737
rtoes -29.3218
lfemur -35.5542 1.12929 -17.8924
ltibia 80.2187
lfoot 11.721 19.3078
ltoes -2.52413
71
root 1.57904 15.9461 4.70909 -169.849 3.20711 -178.402
lowerback -0.0697705 3.54605 -0.590911
upperback 0.720177 4.74943 -0.897625
thorax 0.804728 2.37859 -0.550991
lowerneck -35.7809 -0.994184 0.947638
upperneck 36.1427 -3.38688 0.0489059
head 20.2102 -1.48396 -1.18188
rclavicle 2.05742e-014 -1.27222e-014
rhumerus -43.1454 22.1246 -98.9912
rradius 97.8833
rwrist 7.28826
rhand -15.832 -1.07273
rfingers 7.12502
rthumb 10.3622 -30.7974
lclavicle 2.05742e-014 -1.27222e-014
lhumerus -63.9582 -22.6136 97.906
lradius 105.789
lwrist -19.4222
lhand -12.9612 2.1439
lfingers 7.12502
lthumb 13.1306 31.7105
rfemur -5.42597 4.48829 28.0957
rtibia 31.0594
rfoot -3.05083 -13.6874
rtoes -30.2497
lfemur -36.7546 0.703761 -17.9016
ltibia 77.9066
lfoot 11.5741 19.7376
ltoes -2.74416
72
root 1.58683 16.0404 4.38977 -169.544 3.05198 -178.479
lowerback -0.315256 3.88484 -0.668477
upperback 0.549004 5.20413 -1.09022
thorax 0.78045 2.60613 -0.689573
lowerneck -35.8359 -1.38848 0.662036
upperneck 36.2667 -4.02777 0.447614
head 20.3195 -1.69961 -1.10989
rclavicle 1.08835e-014 -1.59028e-015
rhumerus -43.0422 22.4678 -99.1472
rradius 98.4533
rwrist 7.53313
rhand -15.61 -0.958412
rfingers 7.12502
rthumb 10.5763 -30.6723
lclavicle 1.08835e-014 -1.59028e-015
lhumerus -64.5967 -23.0957 97.7501
lradius 106.261
lwrist -19.4741
lhand -12.9537 1.99069
lfingers 7.12502
lthumb 13.1378 31.5568
rfemur -4.0971 4.26837 27.9532
rtibia 29.5706
rfoot -0.734362 -12.6576
rtoes -30.9417
lfemur -37.7594 0.228043 -17.9227
ltibia 75.2417
lfoot 11.5315 20.063
ltoes -2.89031
